<?xml version="1.0" standalone="no"?>
<!DOCTYPE svg PUBLIC "-//W3C//DTD SVG 20010904//EN"
 "http://www.w3.org/TR/2001/REC-SVG-20010904/DTD/svg10.dtd">
<svg version="1.0" xmlns="http://www.w3.org/2000/svg"
 width="449.000000pt" height="449.000000pt" viewBox="0 0 449.000000 449.000000"
 preserveAspectRatio="xMidYMid meet">
<metadata>
Created by potrace 1.14, written by Peter Selinger 2001-2017
</metadata>
<g transform="translate(0.000000,449.000000) scale(0.100000,-0.100000)"
fill="#000000" stroke="none">
<path d="M326 2819 c-65 -15 -153 -69 -206 -125 -215 -227 -123 -599 172 -701
56 -19 168 -18 228 2 28 9 71 36 101 63 l51 46 -5 -67 c-7 -83 -33 -129 -91
-159 -36 -20 -62 -23 -224 -28 l-184 -5 -24 -28 c-33 -38 -32 -90 1 -123 l25
-25 208 3 208 3 66 33 c79 39 129 92 172 181 l31 66 3 246 c3 238 3 247 -17
261 -16 11 -59 14 -218 11 l-198 -3 -24 -27 c-30 -34 -24 -88 14 -120 23 -20
37 -23 111 -23 97 0 113 -13 73 -56 -42 -45 -77 -65 -130 -73 -71 -11 -129 3
-178 46 -171 146 -75 424 145 423 43 0 112 -28 133 -53 11 -14 33 -17 116 -17
109 0 133 9 121 48 -10 29 -126 136 -176 162 -91 47 -208 61 -304 39z"/>
<path d="M1280 2816 c-232 -65 -366 -304 -304 -541 31 -121 113 -219 232 -277
62 -31 73 -33 172 -33 100 0 108 2 180 36 95 46 159 111 208 208 36 73 37 77
37 191 0 110 -1 118 -33 182 -91 185 -303 286 -492 234z m188 -202 c114 -47
174 -198 123 -309 -59 -130 -194 -186 -308 -127 -168 88 -158 360 17 436 46
20 121 20 168 0z"/>
<path d="M2285 2816 c-195 -45 -343 -226 -347 -423 -3 -134 32 -223 122 -312
93 -92 206 -134 354 -132 99 1 227 52 279 109 18 19 17 21 -15 58 -18 22 -45
51 -61 65 l-28 27 -25 -23 c-55 -51 -158 -75 -229 -53 -16 6 -36 10 -42 11 -7
0 -13 4 -13 9 0 4 -6 8 -14 8 -7 0 -29 15 -47 33 -105 100 -108 276 -6 378 86
85 202 101 318 41 34 -17 65 -29 70 -26 11 7 89 125 89 135 0 13 -97 69 -146
84 -72 22 -188 27 -259 11z"/>
<path d="M2827 2799 c-4 -13 -5 -206 -4 -429 l2 -405 190 -2 c214 -2 263 5
353 47 175 82 275 276 237 461 -14 64 -59 153 -92 179 -12 9 -20 20 -17 23 11
11 -117 95 -178 117 -55 20 -88 23 -274 27 l-211 5 -6 -23z m448 -181 c92 -48
137 -121 139 -229 1 -37 -2 -65 -6 -63 -7 5 -12 -14 -11 -43 1 -7 -4 -10 -10
-6 -6 4 -8 0 -4 -11 4 -10 3 -15 -3 -11 -9 6 -14 -8 -11 -28 1 -5 -3 -6 -7 -3
-5 3 -18 -4 -28 -16 -11 -11 -41 -31 -69 -44 -42 -20 -66 -24 -147 -24 l-98 0
0 248 c0 137 3 252 7 255 3 4 49 6 102 4 79 -3 105 -8 146 -29z"/>
<path d="M3720 2803 c-4 -260 -1 -825 4 -831 11 -11 159 -10 174 1 9 7 12 72
12 263 0 197 3 254 13 254 6 0 34 -33 61 -73 107 -155 318 -438 334 -445 21
-11 132 -9 150 1 9 6 12 100 12 415 0 224 -4 412 -8 419 -8 13 -69 12 -91 -1
-10 -6 -12 -5 -7 2 12 19 -12 14 -24 -5 -9 -15 -11 -15 -7 -2 4 12 -1 17 -17
17 -13 0 -23 -6 -24 -12 -2 -15 -11 -321 -11 -415 -1 -71 -2 -73 -19 -57 -11
9 -36 42 -58 74 -21 31 -44 63 -51 70 -7 7 -34 41 -60 75 -26 34 -59 72 -72
85 -13 12 -20 22 -15 22 5 1 -4 12 -21 26 -16 15 -23 23 -15 19 8 -3 6 2 -6
12 -11 10 -22 23 -25 28 -2 6 -8 9 -12 7 -5 -1 -6 2 -3 7 3 5 -4 20 -15 35
-19 25 -25 26 -110 26 -78 0 -89 -2 -89 -17z"/>
</g>
</svg>
